



                                                             ÛÛÛÛÛ  
   ÛÛÛÛÛÛÛÛ ÛÛÛ        ÛÛÛ                                  ÛÛÛÛÛÛÛÛ
  ÛÛ   ÛÛÛ ÛÛ        ÛÛÛÛÛÛÛ ÛÛ                           ÛÛÛÛ   ÛÛÛ
       ÛÛ ÛÛÛ       ÛÛ   ÛÛÛÛÛÛ                           ÛÛÛ   ÛÛÛÛ
      ÛÛÛ ÛÛÛ      ÛÛ      ÛÛÛ                           ÛÛÛ    ÛÛÛ 
      ÛÛÛ ÛÛÛ     ÛÛÛ      ÛÛ              ÛÛÛ     ÛÛÛ   ÛÛÛ   ÛÛÛ  
      ÛÛÛ ÛÛÛ     ÛÛÛÛ     ÛÛ             ÛÛÛÛÛ   ÛÛÛÛÛ  ÛÛÛ  ÛÛ    
    ÛÛÛÛÛ ÛÛÛ    ÛÛÛÛÛÛÛÛÛÛÛÛÛÛÛÛ         ÛÛÛÛ    ÛÛÛÛ    ÛÛ ÛÛ     
   ÛÛÛÛÛÛ ÛÛÛ   ÛÛ ÛÛÛÛÛÛÛÛÛÛÛÛÛÛÛÛ      ÛÛÛÛ    ÛÛÛÛ      ÛÛÛ      
  ÛÛ  ÛÛÛ ÛÛÛÛ  ÛÛ       ÛÛ    ÛÛÛÛ     ÛÛÛÛ    ÛÛÛÛ       ÛÛÛÛ     
       ÛÛÛÛÛÛÛ  ÛÛÛ     ÛÛ      ÛÛÛÛ   ÛÛÛÛÛ   ÛÛÛÛÛ     ÛÛÛ ÛÛÛ    
       ÛÛÛ ÛÛÛ   ÛÛÛÛÛÛÛÛÛÛÛÛÛÛ  ÛÛÛ  ÛÛÛÛÛ   ÛÛÛÛÛ     ÛÛÛ   ÛÛÛ   
       ÛÛÛ ÛÛÛ    ÛÛÛÛÛÛÛÛÛÛÛÛÛÛ ÛÛÛ ÛÛ ÛÛÛ  ÛÛ ÛÛÛ    ÛÛÛ    ÛÛÛ   
       ÛÛÛ ÛÛÛ         ÛÛ   ÛÛÛÛÛÛÛÛ    ÛÛÛ     ÛÛÛ   ÛÛÛ     ÛÛÛ   
      ÛÛÛÛ ÛÛÛ   ÛÛÛÛÛÛÛ    ÛÛÛÛÛÛÛÛ    ÛÛ      ÛÛ   ÛÛÛÛ    ÛÛÛÛ   
   ÛÛÛÛÛÛ  ÛÛÛ  ÛÛÛÛÛÛÛÛÛ ÛÛÛ  ÛÛÛ     ÛÛÛ     ÛÛÛ   ÛÛÛ    ÛÛÛÛ    
  ÛÛÛÛÛÛ   ÛÛ   ÛÛ   ÛÛÛÛÛÛÛ  ÛÛÛ      ÛÛÛ     ÛÛÛ   ÛÛÛ   ÛÛÛÛ     
 ÛÛ  ÛÛÛÛ ÛÛÛ   ÛÛ    ÛÛÛÛÛÛÛÛÛ        ÛÛÛ     ÛÛÛ     ÛÛÛÛÛÛÛ      
 ÛÛ    ÛÛÛÛ      ÛÛÛÛÛÛ   ÛÛÛÛ         ÛÛÛ     ÛÛÛ     ÛÛÛÛÛ        
 ---------------------------------------------------------------
================================================================




Crank: High Voltage (2009):
=========================== 
http://www.imdb.com/title/tt1121931/



*** Contact Me On Suprbay (If you have Problems):
================================================== 
http://forum.suprbay.org/member.php?action=profile&uid=73821



Wiki Says...
===========

Crank: High Voltage (released as Crank 2: High Voltage in some regions and on DVD) is a 2009 American action/thriller film, and sequel to the 2006 action film, Crank. It picks up shortly after the first film left off, retaining its "real-time" feel and adding surrealism. Crank: High Voltage was written and directed by Mark Neveldine and Brian Taylor, who both wrote and directed the previous film. The film was released in the United Kingdom on April 16, 2009,[2] one day prior to its North American release date.



Video/Audio Quality :
===================


Video
=====


Format                           : MPEG-4 Visual
Format profile                   : Streaming Video@L1
Format settings, BVOP            : Yes
Format settings, QPel            : No
Format settings, GMC             : No warppoints
Format settings, Matrix          : Default (H.263)
Muxing mode                      : Packed bitstream
Codec ID                         : XVID
Codec ID/Hint                    : XviD
Duration                         : 1h 35mn
Bit rate                         : 851 Kbps
Width                            : 624 pixels
Height                           : 352 pixels
Display aspect ratio             : 16/9
Frame rate                       : 23.976 fps
Resolution                       : 24 bits
Colorimetry                      : 4:2:0
Scan type                        : Progressive
Bits/(Pixel*Frame)               : 0.162
Stream size                      : 584 MiB (84%)
Writing library                  : XviD 1.3.0.dev55


Audio
=====

Format                           : MPEG Audio
Format version                   : Version 1
Format profile                   : Layer 3
Codec ID                         : 55
Codec ID/Hint                    : MP3
Duration                         : 1h 35mn
Bit rate mode                    : Variable
Bit rate                         : 153 Kbps
Minimum bit rate                 : 32.0 Kbps
Channel(s)                       : 2 channels
Sampling rate                    : 48.0 KHz
Resolution                       : 16 bits
Stream size                      : 105 MiB (15%)
Alignment                        : Aligned on interleaves
Interleave, duration             : 24 ms (0.58 video frame)
Interleave, preload duration     : 120 ms
Writing library                  : LAME3.98b
Encoding settings                : -m j -V 3 -q 0 -lowpass 18 --vbr-new -b 32




For Reporting Bad Torrents...
========================== 
http://suprbay.org/forumdisplay.php?s=f3a6199e4daba2e7d55524d79e5f17b0&f=34



Screenshots...
============
 
http://img17.imageshack.us/img17/7674/pic01x.jpg 
http://img143.imageshack.us/img143/4203/pic02y.jpg 
http://img18.imageshack.us/img18/8673/pic03g.jpg 
http://img143.imageshack.us/img143/5388/pic04.jpg




                  /--------------------------------------
                  |                                      |
                  | "IF A MAN HASN'T SOMETHING,          |
                  |                                      |
                  |         HE SHOULD "DIE" FOR...       |
                  |                                      |
                  |      THEN.. HE HAS NOTHING,          |
                  |                                      |
                  |         HE SHOULD "LIVE" FOR...!!"   |
                  |                                      |
                  --------------------------------------/


	      "Any Difficulty or Problem, Contact Me on SuprBay!"

				Thank You!